<svg width="20" height="20" viewBox="0 0 20 20" fill="none" xmlns="http://www.w3.org/2000/svg">
<path d="M17.439 5.84999C17.39 6.17199 17.4981 6.49799 17.7281 6.72799L19.296 8.29599C19.766 8.76599 20.0021 9.38299 20.0021 9.99999C20.0021 10.617 19.767 11.233 19.296 11.704L17.685 13.315C17.5768 13.4232 17.4447 13.5045 17.2993 13.5524C17.154 13.6003 16.9994 13.6135 16.848 13.591C16.378 13.521 16.046 13.111 15.88 12.666C15.7344 12.2728 15.4922 11.9225 15.1758 11.6474C14.8593 11.3722 14.4788 11.1811 14.0692 11.0915C13.6595 11.0019 13.2339 11.0167 12.8315 11.1346C12.4291 11.2525 12.0628 11.4697 11.7663 11.7662C11.4698 12.0627 11.2526 12.429 11.1347 12.8315C11.0168 13.2339 11.0019 13.6595 11.0915 14.0691C11.1811 14.4787 11.3723 14.8593 11.6474 15.1757C11.9226 15.4922 12.2728 15.7343 12.666 15.88C13.112 16.046 13.521 16.377 13.591 16.848C13.6137 16.9994 13.6005 17.1539 13.5526 17.2993C13.5046 17.4447 13.4233 17.5768 13.315 17.685L11.705 19.295C11.4814 19.5194 11.2157 19.6973 10.9231 19.8186C10.6305 19.94 10.3168 20.0023 10 20.002C9.68351 20.0024 9.37001 19.9402 9.07758 19.8191C8.78515 19.6979 8.51955 19.5201 8.29605 19.296L6.72805 17.728C6.61472 17.6145 6.47634 17.5291 6.32403 17.4787C6.17172 17.4283 6.00972 17.4144 5.85105 17.438C5.35805 17.512 5.01105 17.942 4.83105 18.406C4.68017 18.7932 4.43513 19.1368 4.11809 19.4055C3.80105 19.6742 3.42202 19.8597 3.01528 19.9451C2.60853 20.0305 2.18692 20.0131 1.78857 19.8946C1.39022 19.7761 1.02771 19.5601 0.733826 19.2662C0.439945 18.9723 0.223967 18.6098 0.105431 18.2115C-0.0131057 17.8131 -0.0304606 17.3915 0.0549361 16.9848C0.140333 16.578 0.325787 16.199 0.594521 15.8819C0.863255 15.5649 1.20679 15.3199 1.59405 15.169C2.05805 14.989 2.48805 14.642 2.56105 14.149C2.58476 13.9904 2.57097 13.8284 2.52079 13.6761C2.4706 13.5238 2.38541 13.3854 2.27205 13.272L0.704049 11.704C0.479897 11.4805 0.302131 11.2149 0.180971 10.9225C0.0598108 10.63 -0.00235451 10.3165 -0.00195117 9.99999C-0.00195117 9.38299 0.234049 8.76599 0.704049 8.29599L2.23005 6.76999C2.47005 6.52999 2.81105 6.41699 3.14705 6.46699C3.66205 6.54399 4.02405 6.99499 4.22005 7.47699C4.37575 7.85874 4.62344 8.19605 4.94106 8.4589C5.25869 8.72174 5.63639 8.90195 6.04052 8.98348C6.44466 9.06501 6.86269 9.04533 7.25737 8.92619C7.65206 8.80705 8.01116 8.59215 8.30268 8.30062C8.59421 8.0091 8.80911 7.65 8.92825 7.25531C9.04739 6.86063 9.06708 6.4426 8.98555 6.03846C8.90401 5.63433 8.7238 5.25663 8.46096 4.939C8.19811 4.62138 7.8608 4.37369 7.47905 4.21799C6.99705 4.02199 6.54605 3.65999 6.46905 3.14499C6.41905 2.80899 6.53105 2.46899 6.77205 2.22799L8.29705 0.702988C8.52051 0.479136 8.78599 0.301624 9.07824 0.18064C9.37048 0.059657 9.68375 -0.00241494 10 -0.00201221C10.617 -0.00201221 11.234 0.233988 11.704 0.703988L13.272 2.27199C13.502 2.50199 13.828 2.60999 14.149 2.56199C14.642 2.48799 14.989 2.05799 15.169 1.59399C15.3199 1.20673 15.565 0.863194 15.882 0.59446C16.199 0.325726 16.5781 0.140272 16.9848 0.0548751C17.3916 -0.0305217 17.8132 -0.0131667 18.2115 0.10537C18.6099 0.223906 18.9724 0.439884 19.2663 0.733765C19.5602 1.02765 19.7761 1.39016 19.8947 1.78851C20.0132 2.18686 20.0306 2.60847 19.9452 3.01521C19.8598 3.42196 19.6743 3.80099 19.4056 4.11803C19.1368 4.43507 18.7933 4.68011 18.406 4.83099C17.942 5.01099 17.512 5.35699 17.439 5.84999Z" fill="black"/>
</svg>
